<svg width="100" height="30" viewBox="0 0 100 30" fill="none" xmlns="http://www.w3.org/2000/svg">
<rect width="100" height="30" fill="#24FF00"/>
<path d="M39.9205 20V13.4545H45.0682V20H44.0625V14.392H40.9261V20H39.9205ZM46.9048 20V13.4545H47.9105V16.3011H48.5753L50.9276 13.4545H52.223L49.581 16.608L52.2571 20H50.9616L48.8139 17.2386H47.9105V20H46.9048ZM55.2763 20.1534C54.8615 20.1534 54.4851 20.0753 54.147 19.919C53.8089 19.7599 53.5405 19.5312 53.3416 19.233C53.1428 18.9318 53.0433 18.5682 53.0433 18.142C53.0433 17.767 53.1172 17.4631 53.2649 17.2301C53.4126 16.9943 53.6101 16.8097 53.8572 16.6761C54.1044 16.5426 54.3771 16.4432 54.6754 16.3778C54.9766 16.3097 55.2791 16.2557 55.5831 16.2159C55.9808 16.1648 56.3033 16.1264 56.5504 16.1009C56.8004 16.0724 56.9822 16.0256 57.0959 15.9602C57.2124 15.8949 57.2706 15.7812 57.2706 15.6193V15.5852C57.2706 15.1648 57.1555 14.8381 56.9254 14.6051C56.6982 14.3722 56.353 14.2557 55.8899 14.2557C55.4098 14.2557 55.0334 14.3608 54.7607 14.571C54.4879 14.7812 54.2962 15.0057 54.1854 15.2443L53.2308 14.9034C53.4013 14.5057 53.6286 14.196 53.9126 13.9744C54.1996 13.75 54.5121 13.5937 54.8501 13.5057C55.1911 13.4148 55.5263 13.3693 55.8558 13.3693C56.0661 13.3693 56.3075 13.3949 56.5803 13.446C56.8558 13.4943 57.1214 13.5952 57.3771 13.7486C57.6357 13.902 57.8501 14.1335 58.0206 14.4432C58.1911 14.7528 58.2763 15.1676 58.2763 15.6875V20H57.2706V19.1136H57.2195C57.1513 19.2557 57.0376 19.4077 56.8786 19.5696C56.7195 19.7315 56.5078 19.8693 56.2436 19.983C55.9794 20.0966 55.657 20.1534 55.2763 20.1534ZM55.4297 19.25C55.8274 19.25 56.1626 19.1719 56.4354 19.0156C56.7109 18.8594 56.9183 18.6577 57.0575 18.4105C57.1996 18.1634 57.2706 17.9034 57.2706 17.6307V16.7102C57.228 16.7614 57.1342 16.8082 56.9893 16.8509C56.8473 16.8906 56.6825 16.9261 56.495 16.9574C56.3104 16.9858 56.13 17.0114 55.9538 17.0341C55.7805 17.054 55.6399 17.071 55.532 17.0852C55.2706 17.1193 55.0263 17.1747 54.799 17.2514C54.5746 17.3253 54.3928 17.4375 54.2536 17.5881C54.1172 17.7358 54.049 17.9375 54.049 18.1932C54.049 18.5426 54.1783 18.8068 54.4368 18.9858C54.6982 19.1619 55.0291 19.25 55.4297 19.25Z" fill="white"/>
</svg>
